<?xml version="1.0" encoding="utf-8"?>
<!-- Generator: Adobe Illustrator 25.1.0, SVG Export Plug-In . SVG Version: 6.00 Build 0)  -->
<svg version="1.1" id="Layer_1" xmlns="http://www.w3.org/2000/svg" xmlns:xlink="http://www.w3.org/1999/xlink" x="0px" y="0px"
	 viewBox="0 0 648 216" style="enable-background:new 0 0 648 216;" xml:space="preserve">
<style type="text/css">
	.st0{fill:none;}
	.st1{fill:#3D3935;}
	.st2{fill:#FF4438;}
	.st3{fill:#0075CF;}
	.st4{fill:#333333;}
</style>
<rect class="st0" width="648" height="216"/>
<g>
	<path class="st1" d="M231.9,135l-6.8,18h-20.5L238,66h24.2l33.3,87h-21.3l-6.8-18H231.9z M249.7,84.6l-12.1,33.3h24.3L249.7,84.6z"
		/>
	<path class="st1" d="M333.5,103.7c-6.9,0-13.1,3.6-15.4,5.9V153h-18.7V87.8h18.7v9.6c3.1-4.1,9-9.6,18.7-9.6h2.3v16H333.5z"/>
	<path class="st1" d="M373.6,137.3h15.6V153h-17.4c-10.8,0-16.9-5.6-16.9-16.1v-33.2h-10.4v-16h10.6V66h18.2v21.8h15.8v16h-15.6
		V137.3z"/>
	<path class="st1" d="M420.3,153h-18.7V87.8h18.7V153z"/>
	<rect x="401.4" y="63" class="st1" width="19" height="17.6"/>
	<path class="st1" d="M459.8,87.8h14v16h-14V153h-18.7v-49.3h-11.3v-16h11v-8.7c0-10.5,6.1-16.1,16.9-16.1h16.1v15.7h-14V87.8z"/>
	<path class="st1" d="M522,132.1h17.9v4.8c0,11-5.3,16.1-16.9,16.1h-25.6c-11.6,0-16.9-5.1-16.9-16.1v-33.1c0-11,5.3-16.1,16.9-16.1
		H523c11.6,0,16.9,5.1,16.9,16.1v22.1h-39.8v11.7H522V132.1z M499.2,105.9v6.9h21.9v-6.9c0-2-0.8-2.7-2.9-2.7H502
		C500,103.2,499.2,103.9,499.2,105.9z"/>
	<path class="st1" d="M562.6,153h-19.4l22.7-33.1l-22.5-32.1h20.7l12.7,18.5l12.7-18.5H609L586.6,120l23.1,33h-20.7l-13.2-19
		L562.6,153z"/>
</g>
<polygon class="st2" points="141.9,108 183.4,108 162.7,153 "/>
<polygon class="st3" points="121.2,63 79.7,63 38.2,153 79.7,153 "/>
<polygon class="st1" points="100.5,108 121.2,63 162.7,153 121.2,153 "/>
<g>
	<path class="st4" d="M169,149.6c0-3.3,2.6-5.5,5.6-5.5c3,0,5.6,2.2,5.6,5.5s-2.6,5.5-5.6,5.5C171.6,155.1,169,152.9,169,149.6z
		 M174.6,154c2.4,0,4.3-1.9,4.3-4.4c0-2.6-1.9-4.4-4.3-4.4c-2.4,0-4.3,1.9-4.3,4.4C170.3,152.2,172.2,154,174.6,154z M173.5,152.6
		h-1.1v-6.2h2.3c1.5,0,2.3,0.5,2.3,1.8c0,1.1-0.7,1.6-1.7,1.7l1.7,2.7H176l-1.6-2.7h-0.9V152.6z M174.7,149.1c0.7,0,1.3-0.1,1.3-0.9
		c0-0.7-0.7-0.8-1.3-0.8h-1.2v1.8H174.7z"/>
</g>
</svg>
