<?xml version="1.0" encoding="UTF-8"?><svg id="Logo" xmlns="http://www.w3.org/2000/svg" viewBox="0 0 1950 1114"><defs><style>.cls-1{fill:#333;}.cls-1,.cls-2,.cls-3{stroke-width:0px;}.cls-2{fill:#ff911d;}.cls-3{fill:#ff550d;}</style></defs><polygon class="cls-3" points="561.37 712.03 399.09 668.25 399.09 402.16 318.15 381.53 318.15 729.15 561.37 795.48 561.37 712.03"/><polygon class="cls-2" points="594.22 368.31 399.09 318.21 399.09 402.16 524.12 434.02 561.37 490.93 561.37 712.03 643.11 734.08 643.11 441.85 594.22 368.31"/><path class="cls-1" d="m914.16,609.61h-84.01l-14.43,41h-34.36l71.89-200.94h38.11l71.89,200.94h-34.64l-14.44-41Zm-9.24-26.85l-32.62-93.25-32.91,93.25h65.54Z"/><path class="cls-1" d="m1036.11,495.72c7.98-4.52,17.47-6.78,28.44-6.78v34.07h-8.37c-12.9,0-22.66,3.27-29.3,9.82-6.64,6.55-9.96,17.9-9.96,34.07v83.72h-32.91v-159.07h32.91v23.1c4.81-8.08,11.21-14.39,19.2-18.91Z"/><path class="cls-1" d="m1130.8,518.38v88.05c0,5.97,1.39,10.25,4.19,12.85,2.79,2.6,7.55,3.9,14.29,3.9h20.21v27.43h-25.98c-14.82,0-26.18-3.46-34.07-10.39-7.89-6.93-11.84-18.19-11.84-33.78v-88.05h-18.77v-26.85h18.77v-39.55h33.2v39.55h38.69v26.85h-38.69Z"/><path class="cls-1" d="m1191.63,464.4c-4.04-4.04-6.06-9.04-6.06-15.01s2.02-10.97,6.06-15.01,9.04-6.06,15.01-6.06,10.68,2.02,14.72,6.06c4.04,4.04,6.06,9.05,6.06,15.01s-2.02,10.97-6.06,15.01c-4.04,4.04-8.95,6.06-14.72,6.06s-10.97-2.02-15.01-6.06Zm31.18,27.14v159.07h-32.91v-159.07h32.91Z"/><path class="cls-1" d="m1325.76,518.38h-29.45v132.23h-33.2v-132.23h-18.77v-26.85h18.77v-11.26c0-18.28,4.86-31.61,14.58-39.98,9.72-8.37,24.97-12.56,45.76-12.56v27.43c-10.01,0-17.03,1.88-21.08,5.63-4.04,3.75-6.06,10.25-6.06,19.49v11.26h29.45v26.85Z"/><path class="cls-1" d="m1489.79,583.34h-121.54c.96,12.7,5.67,22.91,14.15,30.6,8.47,7.7,18.86,11.55,31.18,11.55,17.71,0,30.21-7.41,37.53-22.23h35.51c-4.81,14.63-13.52,26.61-26.13,35.94-12.61,9.34-28.25,14-46.91,14-15.21,0-28.83-3.41-40.85-10.25-12.03-6.83-21.46-16.46-28.29-28.87-6.83-12.41-10.25-26.8-10.25-43.16s3.32-30.75,9.96-43.16c6.64-12.41,15.97-21.99,28-28.73,12.03-6.73,25.84-10.1,41.43-10.1s28.39,3.27,40.13,9.82c11.74,6.55,20.88,15.73,27.43,27.57,6.54,11.84,9.82,25.46,9.82,40.85,0,5.97-.39,11.36-1.15,16.17Zm-33.2-26.56c-.19-12.13-4.52-21.84-12.99-29.16-8.47-7.31-18.96-10.97-31.47-10.97-11.36,0-21.07,3.61-29.16,10.83-8.08,7.22-12.9,16.99-14.44,29.3h88.05Z"/><path class="cls-1" d="m1580.56,570.06l51.39,80.55h-37.24l-34.36-53.99-32.33,53.99h-34.36l51.39-78.24-51.39-80.84h37.24l34.36,53.99,32.33-53.99h34.36l-51.39,78.53Z"/></svg>