<?xml version="1.0" encoding="utf-8"?>
<!-- Generator: Adobe Illustrator 25.1.0, SVG Export Plug-In . SVG Version: 6.00 Build 0)  -->
<svg version="1.1" id="Layer_1" xmlns="http://www.w3.org/2000/svg" xmlns:xlink="http://www.w3.org/1999/xlink" x="0px" y="0px"
	 viewBox="0 0 192.1 198.4" style="enable-background:new 0 0 192.1 198.4;" xml:space="preserve">
<style type="text/css">
	.st0{fill:#FFFFFF;}
	.st1{fill:none;stroke:#FFFFFF;stroke-width:10;stroke-linecap:round;stroke-miterlimit:10;}
</style>
<g>
	<g>
		<g>
			<path class="st0" d="M72,155.9L29.6,45.5H0V196h20.9V75.2l41.2,108.6h19.8l24.6-64.9c-5.9-2.8-11.4-6.5-16.1-10.9
				C82.3,129,72,155.9,72,155.9z"/>
			<path class="st0" d="M131.6,140.1v51.8h-3.7V140c-1.6-0.1-3.2-0.3-4.7-0.5v52.1v2.9v0.1c0,0,3.2,3.6,10.3,3.6s10.6-3.6,10.6-3.6
				v-2.9v-52.1c-3.5,0.5-7.1,0.8-10.7,0.8C132.7,140.2,132.2,140.1,131.6,140.1z"/>
			<path class="st0" d="M123.1,124.1V137c1.6,0.2,3.1,0.4,4.7,0.5v-7.3h3.7v7.5c4.2,0.1,8.3-0.1,12.4-0.7V124
				c-3.5,0.6-7.1,0.9-10.7,0.9C129.8,124.9,126.4,124.6,123.1,124.1z"/>
		</g>
	</g>
</g>
<path class="st1" d="M179.7,88.2c0.4-0.8,0.8-1.5,1.1-2.3c7.9-17,6.5-37.7-5.5-53.8c-17.4-23.3-50.4-28.1-73.7-10.8 M86.3,39.4
	c-9,17.3-7.9,39,4.6,55.7c17.4,23.3,50.4,28.1,73.7,10.8"/>
<path class="st0" d="M120.2,9.2l-4.5-6c0,0-4.6-8.6-20.1,2.9l0,0l0,0c-14.8,11.1-9.1,16.8-9.1,16.8l6.5,6.4l11.7-11.3 M91.1,16.3
	c1.4-1,3.4-0.8,4.4,0.6s0.8,3.4-0.6,4.4c-1.4,1-3.4,0.8-4.4-0.6S89.7,17.4,91.1,16.3L91.1,16.3L91.1,16.3z"/>
<path class="st0" d="M146.3,118.4l4.7,6.3c0,0,4.8,9.1,21.1-3.1l0,0l0,0c15.6-11.6,9.6-17.6,9.6-17.6l-6.8-6.7l-12.3,11.9
	 M176.8,110.9c-1.5,1.1-3.6,0.8-4.7-0.7c-1.1-1.5-0.8-3.6,0.7-4.7c1.5-1.1,3.6-0.8,4.7,0.7C178.6,107.7,178.3,109.8,176.8,110.9
	L176.8,110.9L176.8,110.9z"/>
<path class="st0" d="M171.8,42.1l0.8-1.4l-1.1-1.4c-8.7-10.9-22.8-17.5-37.7-17.5c-14.8,0-28.8,6.5-37.5,17.5l1.7,1.2
	c9-8.3,21.9-13.1,35.8-13.1c7.2,0,14.3,1.4,21,3.9c2.2,0.9,4.4,1.9,6.4,3.1h-46l-1.8,1.2L94.5,85.7l0.1,0.8c0.5,0.8,1.1,1.6,1.8,2.3
	c8.7,10.9,22.7,17.5,37.4,17.5c14.9,0,29-6.5,37.7-17.4l-1.7-1.2c-4.5,4.2-9.9,7.5-16,9.7V62.8C153.8,45.1,156.4,42.2,171.8,42.1z
	 M124.1,99.9c-4.3-0.6-8.1-1.5-11.5-2.7l11.5-31.4V99.9z"/>
</svg>
